<?xml version="1.0" standalone="no"?>
<!DOCTYPE svg PUBLIC "-//W3C//DTD SVG 20010904//EN"
 "http://www.w3.org/TR/2001/REC-SVG-20010904/DTD/svg10.dtd">
<svg version="1.0" xmlns="http://www.w3.org/2000/svg"
 width="97.000000pt" height="97.000000pt" viewBox="0 0 97.000000 97.000000"
 preserveAspectRatio="xMidYMid meet">
<metadata>
Created by potrace 1.15, written by Peter Selinger 2001-2017
</metadata>
<g transform="translate(0.000000,97.000000) scale(0.100000,-0.100000)"
fill="#000000" stroke="none">
<path d="M228 872 l-198 -67 1 -45 c0 -66 34 -378 41 -385 3 -3 16 27 28 67
12 40 35 117 51 170 l29 96 140 112 c77 62 140 114 140 116 0 11 -51 -3 -232
-64z"/>
<path d="M535 907 c21 -18 87 -70 145 -117 l105 -85 50 -168 c27 -92 52 -167
55 -167 6 0 52 432 47 436 -8 6 -418 134 -429 134 -7 -1 5 -15 27 -33z"/>
<path d="M352 738 l-113 -59 3 -130 3 -131 117 -61 118 -62 117 60 118 60 3
132 3 131 -115 61 c-63 34 -120 60 -128 60 -7 -1 -64 -28 -126 -61z"/>
<path d="M120 302 c0 -4 82 -67 181 -140 l180 -133 107 78 c199 146 252 187
252 195 0 3 -30 -2 -67 -13 -38 -11 -118 -33 -180 -51 l-111 -31 -114 31 c-62
18 -143 40 -180 51 -38 11 -68 17 -68 13z"/>
</g>
</svg>
